<mxfile host="app.diagrams.net" agent="Mozilla/5.0 (Windows NT 10.0; Win64; x64; rv:129.0) Gecko/20100101 Firefox/129.0" version="24.7.7">
  <diagram id="tDPf8CNvzOaNMvIxZvwo" name="Seite-1">
    <mxGraphModel dx="794" dy="339" grid="1" gridSize="10" guides="1" tooltips="1" connect="1" arrows="1" fold="1" page="1" pageScale="1" pageWidth="827" pageHeight="1169" math="0" shadow="0">
      <root>
        <mxCell id="0" />
        <mxCell id="1" parent="0" />
        <mxCell id="lzmcIZGoqttrfyCk76lP-21" style="edgeStyle=orthogonalEdgeStyle;rounded=0;orthogonalLoop=1;jettySize=auto;html=1;exitX=0.5;exitY=1;exitDx=0;exitDy=0;entryX=0.5;entryY=0;entryDx=0;entryDy=0;strokeWidth=4;fontSize=20;curved=1;fillColor=#dae8fc;strokeColor=#6c8ebf;" parent="1" source="lzmcIZGoqttrfyCk76lP-19" target="lzmcIZGoqttrfyCk76lP-20" edge="1">
          <mxGeometry relative="1" as="geometry" />
        </mxCell>
        <mxCell id="X_1ddgbnGcCbuA_kLiaL-45" value="&lt;font style=&quot;font-size: 20px;&quot;&gt;0.33&lt;/font&gt;" style="edgeLabel;html=1;align=center;verticalAlign=middle;resizable=0;points=[];" parent="lzmcIZGoqttrfyCk76lP-21" vertex="1" connectable="0">
          <mxGeometry x="0.124" y="5" relative="1" as="geometry">
            <mxPoint x="-25" y="23" as="offset" />
          </mxGeometry>
        </mxCell>
        <mxCell id="X_1ddgbnGcCbuA_kLiaL-2" style="edgeStyle=orthogonalEdgeStyle;rounded=0;orthogonalLoop=1;jettySize=auto;html=1;exitX=0.25;exitY=1;exitDx=0;exitDy=0;curved=1;strokeWidth=4;entryX=0.25;entryY=0;entryDx=0;entryDy=0;fillColor=#0050ef;strokeColor=#001DBC;" parent="1" source="lzmcIZGoqttrfyCk76lP-19" target="lzmcIZGoqttrfyCk76lP-20" edge="1">
          <mxGeometry relative="1" as="geometry" />
        </mxCell>
        <mxCell id="X_1ddgbnGcCbuA_kLiaL-44" value="&lt;font style=&quot;font-size: 20px;&quot;&gt;0.33&lt;/font&gt;" style="edgeLabel;html=1;align=center;verticalAlign=middle;resizable=0;points=[];" parent="X_1ddgbnGcCbuA_kLiaL-2" vertex="1" connectable="0">
          <mxGeometry x="0.1336" y="1" relative="1" as="geometry">
            <mxPoint x="-20" y="7" as="offset" />
          </mxGeometry>
        </mxCell>
        <mxCell id="X_1ddgbnGcCbuA_kLiaL-3" style="edgeStyle=orthogonalEdgeStyle;rounded=0;orthogonalLoop=1;jettySize=auto;html=1;exitX=0.75;exitY=1;exitDx=0;exitDy=0;entryX=0.75;entryY=0;entryDx=0;entryDy=0;curved=1;strokeWidth=4;fillColor=#ffe6cc;strokeColor=#d79b00;" parent="1" source="lzmcIZGoqttrfyCk76lP-19" target="lzmcIZGoqttrfyCk76lP-20" edge="1">
          <mxGeometry relative="1" as="geometry" />
        </mxCell>
        <mxCell id="X_1ddgbnGcCbuA_kLiaL-46" value="&lt;font style=&quot;font-size: 20px;&quot;&gt;0.33&lt;/font&gt;" style="edgeLabel;html=1;align=center;verticalAlign=middle;resizable=0;points=[];" parent="X_1ddgbnGcCbuA_kLiaL-3" vertex="1" connectable="0">
          <mxGeometry x="0.5543" y="15" relative="1" as="geometry">
            <mxPoint x="-9" y="26" as="offset" />
          </mxGeometry>
        </mxCell>
        <mxCell id="lzmcIZGoqttrfyCk76lP-19" value="" style="rounded=0;whiteSpace=wrap;html=1;fillColor=#CCCCCC;fontColor=#333333;strokeColor=none;" parent="1" vertex="1">
          <mxGeometry x="240" y="40" width="120" height="53" as="geometry" />
        </mxCell>
        <mxCell id="X_1ddgbnGcCbuA_kLiaL-40" style="edgeStyle=orthogonalEdgeStyle;rounded=0;orthogonalLoop=1;jettySize=auto;html=1;exitX=0.5;exitY=1;exitDx=0;exitDy=0;entryX=0.25;entryY=0;entryDx=0;entryDy=0;curved=1;fillColor=#dae8fc;strokeColor=#6c8ebf;strokeWidth=3;" parent="1" source="lzmcIZGoqttrfyCk76lP-20" target="lzmcIZGoqttrfyCk76lP-22" edge="1">
          <mxGeometry relative="1" as="geometry">
            <Array as="points">
              <mxPoint x="180" y="360" />
              <mxPoint x="270" y="360" />
            </Array>
          </mxGeometry>
        </mxCell>
        <mxCell id="X_1ddgbnGcCbuA_kLiaL-51" value="&lt;font style=&quot;font-size: 20px;&quot;&gt;0.17&lt;/font&gt;" style="edgeLabel;html=1;align=center;verticalAlign=middle;resizable=0;points=[];" parent="X_1ddgbnGcCbuA_kLiaL-40" vertex="1" connectable="0">
          <mxGeometry x="0.6106" y="-8" relative="1" as="geometry">
            <mxPoint x="7" y="-5" as="offset" />
          </mxGeometry>
        </mxCell>
        <mxCell id="lzmcIZGoqttrfyCk76lP-20" value="&lt;span lang=&quot;de&quot; class=&quot;ILfuVd&quot;&gt;&lt;span class=&quot;hgKElc&quot;&gt;&lt;b&gt;&lt;font style=&quot;font-size: 30px;&quot;&gt;∑&lt;/font&gt;&lt;/b&gt;&lt;/span&gt;&lt;/span&gt;" style="rounded=0;whiteSpace=wrap;html=1;fillColor=#CCCCCC;fontColor=#333333;strokeColor=none;" parent="1" vertex="1">
          <mxGeometry x="120" y="270" width="120" height="53" as="geometry" />
        </mxCell>
        <mxCell id="lzmcIZGoqttrfyCk76lP-22" value="&lt;span lang=&quot;de&quot; class=&quot;ILfuVd&quot;&gt;&lt;span class=&quot;hgKElc&quot;&gt;&lt;b&gt;&lt;font style=&quot;font-size: 30px;&quot;&gt;∑&lt;/font&gt;&lt;/b&gt;&lt;/span&gt;&lt;/span&gt;" style="rounded=0;whiteSpace=wrap;html=1;fillColor=#CCCCCC;fontColor=#333333;strokeColor=none;" parent="1" vertex="1">
          <mxGeometry x="240" y="480" width="120" height="53" as="geometry" />
        </mxCell>
        <mxCell id="X_1ddgbnGcCbuA_kLiaL-4" style="edgeStyle=orthogonalEdgeStyle;rounded=0;orthogonalLoop=1;jettySize=auto;html=1;exitX=0.5;exitY=1;exitDx=0;exitDy=0;entryX=0.817;entryY=0.019;entryDx=0;entryDy=0;strokeWidth=3;fontSize=20;curved=1;fillColor=#dae8fc;strokeColor=#6c8ebf;entryPerimeter=0;" parent="1" source="lzmcIZGoqttrfyCk76lP-19" target="lzmcIZGoqttrfyCk76lP-22" edge="1">
          <mxGeometry relative="1" as="geometry">
            <mxPoint x="320" y="240" as="sourcePoint" />
            <mxPoint x="240" y="340" as="targetPoint" />
            <Array as="points">
              <mxPoint x="300" y="210" />
              <mxPoint x="338" y="210" />
            </Array>
          </mxGeometry>
        </mxCell>
        <mxCell id="X_1ddgbnGcCbuA_kLiaL-55" value="&lt;font style=&quot;font-size: 20px;&quot;&gt;0.17&lt;/font&gt;" style="edgeLabel;html=1;align=center;verticalAlign=middle;resizable=0;points=[];" parent="X_1ddgbnGcCbuA_kLiaL-4" vertex="1" connectable="0">
          <mxGeometry x="0.4661" y="-3" relative="1" as="geometry">
            <mxPoint y="-4" as="offset" />
          </mxGeometry>
        </mxCell>
        <mxCell id="X_1ddgbnGcCbuA_kLiaL-5" style="edgeStyle=orthogonalEdgeStyle;rounded=0;orthogonalLoop=1;jettySize=auto;html=1;curved=1;strokeWidth=3;exitX=0.25;exitY=1;exitDx=0;exitDy=0;fillColor=#0050ef;strokeColor=#001DBC;entryX=0.624;entryY=-0.009;entryDx=0;entryDy=0;entryPerimeter=0;" parent="1" source="lzmcIZGoqttrfyCk76lP-19" target="lzmcIZGoqttrfyCk76lP-22" edge="1">
          <mxGeometry relative="1" as="geometry">
            <mxPoint x="270" y="220" as="sourcePoint" />
            <mxPoint x="200" y="320" as="targetPoint" />
            <Array as="points">
              <mxPoint x="270" y="220" />
              <mxPoint x="315" y="220" />
            </Array>
          </mxGeometry>
        </mxCell>
        <mxCell id="X_1ddgbnGcCbuA_kLiaL-47" value="&lt;font style=&quot;font-size: 20px;&quot;&gt;0.17&lt;/font&gt;" style="edgeLabel;html=1;align=center;verticalAlign=middle;resizable=0;points=[];" parent="X_1ddgbnGcCbuA_kLiaL-5" vertex="1" connectable="0">
          <mxGeometry x="0.1856" y="-18" relative="1" as="geometry">
            <mxPoint x="12" y="81" as="offset" />
          </mxGeometry>
        </mxCell>
        <mxCell id="X_1ddgbnGcCbuA_kLiaL-6" style="edgeStyle=orthogonalEdgeStyle;rounded=0;orthogonalLoop=1;jettySize=auto;html=1;exitX=0.75;exitY=1;exitDx=0;exitDy=0;entryX=1;entryY=0;entryDx=0;entryDy=0;curved=1;strokeWidth=3;fillColor=#ffe6cc;strokeColor=#d79b00;" parent="1" source="lzmcIZGoqttrfyCk76lP-19" target="lzmcIZGoqttrfyCk76lP-22" edge="1">
          <mxGeometry relative="1" as="geometry">
            <mxPoint x="350" y="240" as="sourcePoint" />
            <mxPoint x="270" y="340" as="targetPoint" />
            <Array as="points">
              <mxPoint x="330" y="200" />
              <mxPoint x="360" y="200" />
            </Array>
          </mxGeometry>
        </mxCell>
        <mxCell id="X_1ddgbnGcCbuA_kLiaL-49" value="&lt;font style=&quot;font-size: 20px;&quot;&gt;0.17&lt;/font&gt;" style="edgeLabel;html=1;align=center;verticalAlign=middle;resizable=0;points=[];" parent="X_1ddgbnGcCbuA_kLiaL-6" vertex="1" connectable="0">
          <mxGeometry x="0.3405" relative="1" as="geometry">
            <mxPoint as="offset" />
          </mxGeometry>
        </mxCell>
        <mxCell id="X_1ddgbnGcCbuA_kLiaL-39" style="edgeStyle=orthogonalEdgeStyle;rounded=0;orthogonalLoop=1;jettySize=auto;html=1;exitX=0.25;exitY=1;exitDx=0;exitDy=0;entryX=0.075;entryY=-0.014;entryDx=0;entryDy=0;entryPerimeter=0;curved=1;fillColor=#0050ef;strokeColor=#001DBC;strokeWidth=3;" parent="1" source="lzmcIZGoqttrfyCk76lP-20" target="lzmcIZGoqttrfyCk76lP-22" edge="1">
          <mxGeometry relative="1" as="geometry">
            <Array as="points">
              <mxPoint x="150" y="370" />
              <mxPoint x="249" y="370" />
            </Array>
          </mxGeometry>
        </mxCell>
        <mxCell id="X_1ddgbnGcCbuA_kLiaL-52" value="&lt;font style=&quot;font-size: 20px;&quot;&gt;0.17&lt;/font&gt;" style="edgeLabel;html=1;align=center;verticalAlign=middle;resizable=0;points=[];" parent="X_1ddgbnGcCbuA_kLiaL-39" vertex="1" connectable="0">
          <mxGeometry x="0.7956" y="-1" relative="1" as="geometry">
            <mxPoint y="-5" as="offset" />
          </mxGeometry>
        </mxCell>
        <mxCell id="X_1ddgbnGcCbuA_kLiaL-41" style="edgeStyle=orthogonalEdgeStyle;rounded=0;orthogonalLoop=1;jettySize=auto;html=1;exitX=0.75;exitY=1;exitDx=0;exitDy=0;curved=1;strokeWidth=3;fillColor=#ffe6cc;strokeColor=#d79b00;entryX=0.417;entryY=0;entryDx=0;entryDy=0;entryPerimeter=0;" parent="1" source="lzmcIZGoqttrfyCk76lP-20" target="lzmcIZGoqttrfyCk76lP-22" edge="1">
          <mxGeometry relative="1" as="geometry">
            <mxPoint x="360" y="380" as="targetPoint" />
            <Array as="points">
              <mxPoint x="210" y="350" />
              <mxPoint x="290" y="350" />
            </Array>
          </mxGeometry>
        </mxCell>
        <mxCell id="X_1ddgbnGcCbuA_kLiaL-50" value="&lt;font style=&quot;font-size: 20px;&quot;&gt;0.17&lt;/font&gt;" style="edgeLabel;html=1;align=center;verticalAlign=middle;resizable=0;points=[];" parent="X_1ddgbnGcCbuA_kLiaL-41" vertex="1" connectable="0">
          <mxGeometry x="0.4379" y="-14" relative="1" as="geometry">
            <mxPoint x="11" y="-7" as="offset" />
          </mxGeometry>
        </mxCell>
      </root>
    </mxGraphModel>
  </diagram>
</mxfile>
